REM DIRINDEX 1\2\4,1\2\5,1\2\6,1\3\7,1\3\8,1\3\9,1\3\10
REM DIRNAME folder01,folder02,folder03,folder04,folder05,folder06,folder07,folder08,folder09,folder10
TITLE ""
FILE "b_24.mp3" MP3
  TRACK 01 AUDIO
    TITLE "0:"
    INDEX 01 00:00:00
  TRACK 02 AUDIO
    TITLE "10:cjc058_2779"
    INDEX 01 00:00:13
  TRACK 03 AUDIO
    TITLE "0:"
    INDEX 01 00:03:57
  TRACK 04 AUDIO
    TITLE "7:cjc058_2780"
    INDEX 01 00:04:25
  TRACK 05 AUDIO
    TITLE "0:"
    INDEX 01 00:05:54
  TRACK 06 AUDIO
    TITLE "8:cjc058_2781"
    INDEX 01 00:06:12
  TRACK 07 AUDIO
    TITLE "0:"
    INDEX 01 00:07:39
  TRACK 08 AUDIO
    TITLE "9:cjc058_2782"
    INDEX 01 00:08:07
  TRACK 09 AUDIO
    TITLE "0:"
    INDEX 01 00:11:21
  TRACK 10 AUDIO
    TITLE "7:cjc058_2783"
    INDEX 01 00:12:26
  TRACK 11 AUDIO
    TITLE "0:"
    INDEX 01 00:13:47
  TRACK 12 AUDIO
    TITLE "8:cjc058_2784"
    INDEX 01 00:14:04
  TRACK 13 AUDIO
    TITLE "0:"
    INDEX 01 00:16:65
  TRACK 14 AUDIO
    TITLE "9:cjc058_2785"
    INDEX 01 00:17:33
  TRACK 15 AUDIO
    TITLE "0:"
    INDEX 01 00:19:67
  TRACK 16 AUDIO
    TITLE "7:cjc058_2786"
    INDEX 01 00:20:73
  TRACK 17 AUDIO
    TITLE "0:"
    INDEX 01 00:22:34
  TRACK 18 AUDIO
    TITLE "8:cjc058_2787"
    INDEX 01 00:22:64
  TRACK 19 AUDIO
    TITLE "0:"
    INDEX 01 00:24:41
  TRACK 20 AUDIO
    TITLE "9:cjc058_2788"
    INDEX 01 00:25:07
  TRACK 21 AUDIO
    TITLE "0:"
    INDEX 01 00:26:67
  TRACK 22 AUDIO
    TITLE "7:cjc058_2789"
    INDEX 01 00:27:73
  TRACK 23 AUDIO
    TITLE "0:"
    INDEX 01 00:29:27
  TRACK 24 AUDIO
    TITLE "8:cjc058_2790"
    INDEX 01 00:29:60
  TRACK 25 AUDIO
    TITLE "0:"
    INDEX 01 00:33:09
  TRACK 26 AUDIO
    TITLE "9:cjc058_2791"
    INDEX 01 00:33:50
  TRACK 27 AUDIO
    TITLE "0:"
    INDEX 01 00:37:30
  TRACK 28 AUDIO
    TITLE "7:cjc058_2792"
    INDEX 01 00:38:35
  TRACK 29 AUDIO
    TITLE "0:"
    INDEX 01 00:39:68
  TRACK 30 AUDIO
    TITLE "8:cjc058_2793"
    INDEX 01 00:40:23
  TRACK 31 AUDIO
    TITLE "0:"
    INDEX 01 00:42:70
  TRACK 32 AUDIO
    TITLE "9:cjc058_2794"
    INDEX 01 00:43:37
  TRACK 33 AUDIO
    TITLE "0:"
    INDEX 01 00:46:29
  TRACK 34 AUDIO
    TITLE "7:cjc058_2795"
    INDEX 01 00:47:34
  TRACK 35 AUDIO
    TITLE "0:"
    INDEX 01 00:49:08
  TRACK 36 AUDIO
    TITLE "8:cjc058_2796"
    INDEX 01 00:49:39
  TRACK 37 AUDIO
    TITLE "0:"
    INDEX 01 00:51:22
  TRACK 38 AUDIO
    TITLE "9:cjc058_2797"
    INDEX 01 00:51:63
  TRACK 39 AUDIO
    TITLE "0:"
    INDEX 01 00:54:48
  TRACK 40 AUDIO
    TITLE "7:cjc058_2798"
    INDEX 01 00:55:55
  TRACK 41 AUDIO
    TITLE "0:"
    INDEX 01 00:56:72
  TRACK 42 AUDIO
    TITLE "8:cjc058_2799"
    INDEX 01 00:57:29
  TRACK 43 AUDIO
    TITLE "0:"
    INDEX 01 00:59:20
  TRACK 44 AUDIO
    TITLE "9:cjc058_2800"
    INDEX 01 00:59:61
  TRACK 45 AUDIO
    TITLE "0:"
    INDEX 01 01:03:41
  TRACK 46 AUDIO
    TITLE "7:cjc058_2801"
    INDEX 01 01:04:47
  TRACK 47 AUDIO
    TITLE "0:"
    INDEX 01 01:05:64
  TRACK 48 AUDIO
    TITLE "8:cjc058_2802"
    INDEX 01 01:06:22
  TRACK 49 AUDIO
    TITLE "0:"
    INDEX 01 01:07:41
  TRACK 50 AUDIO
    TITLE "9:cjc058_2803"
    INDEX 01 01:08:09
  TRACK 51 AUDIO
    TITLE "0:"
    INDEX 01 01:09:63
  TRACK 52 AUDIO
    TITLE "7:cjc058_2804"
    INDEX 01 01:10:69
  TRACK 53 AUDIO
    TITLE "0:"
    INDEX 01 01:12:23
  TRACK 54 AUDIO
    TITLE "8:cjc058_2805"
    INDEX 01 01:12:52
  TRACK 55 AUDIO
    TITLE "0:"
    INDEX 01 01:14:55
  TRACK 56 AUDIO
    TITLE "9:cjc058_2806"
    INDEX 01 01:15:19
  TRACK 57 AUDIO
    TITLE "0:"
    INDEX 01 01:18:74
  TRACK 58 AUDIO
    TITLE "7:cjc058_2807"
    INDEX 01 01:20:04
  TRACK 59 AUDIO
    TITLE "0:"
    INDEX 01 01:21:47
  TRACK 60 AUDIO
    TITLE "8:cjc058_2808"
    INDEX 01 01:22:03
  TRACK 61 AUDIO
    TITLE "0:"
    INDEX 01 01:24:30
  TRACK 62 AUDIO
    TITLE "9:cjc058_2809"
    INDEX 01 01:25:00
  TRACK 63 AUDIO
    TITLE "0:"
    INDEX 01 01:28:27
  TRACK 64 AUDIO
    TITLE "7:cjc058_2810"
    INDEX 01 01:29:29
  TRACK 65 AUDIO
    TITLE "0:"
    INDEX 01 01:30:56
  TRACK 66 AUDIO
    TITLE "8:cjc058_2811"
    INDEX 01 01:31:12
  TRACK 67 AUDIO
    TITLE "0:"
    INDEX 01 01:33:40
  TRACK 68 AUDIO
    TITLE "9:cjc058_2812"
    INDEX 01 01:34:08
  TRACK 69 AUDIO
    TITLE "0:"
    INDEX 01 01:36:43
  TRACK 70 AUDIO
    TITLE "7:cjc058_2813"
    INDEX 01 01:37:50
  TRACK 71 AUDIO
    TITLE "0:"
    INDEX 01 01:39:02
  TRACK 72 AUDIO
    TITLE "8:cjc058_2814"
    INDEX 01 01:39:35
  TRACK 73 AUDIO
    TITLE "0:"
    INDEX 01 01:42:37
  TRACK 74 AUDIO
    TITLE "9:cjc058_2815"
    INDEX 01 01:43:07
  TRACK 75 AUDIO
    TITLE "0:"
    INDEX 01 01:47:15
  TRACK 76 AUDIO
    TITLE "7:cjc058_2816"
    INDEX 01 01:48:22
  TRACK 77 AUDIO
    TITLE "0:"
    INDEX 01 01:49:49
  TRACK 78 AUDIO
    TITLE "8:cjc058_2817"
    INDEX 01 01:50:06
  TRACK 79 AUDIO
    TITLE "0:"
    INDEX 01 01:51:13
  TRACK 80 AUDIO
    TITLE "9:cjc058_2818"
    INDEX 01 01:51:56
  TRACK 81 AUDIO
    TITLE "0:"
    INDEX 01 01:54:01
